<mxfile host="app.diagrams.net" agent="Mozilla/5.0 (Macintosh; Intel Mac OS X 10_15_7) AppleWebKit/537.36 (KHTML, like Gecko) Chrome/133.0.0.0 Safari/537.36" version="26.0.5">
  <diagram name="第 1 页" id="xeZeX8-BnWwVmvATvtsR">
    <mxGraphModel dx="2261" dy="761" grid="1" gridSize="10" guides="1" tooltips="1" connect="1" arrows="1" fold="1" page="1" pageScale="1" pageWidth="827" pageHeight="1169" math="0" shadow="0">
      <root>
        <mxCell id="0" />
        <mxCell id="1" parent="0" />
        <mxCell id="Vgf2tIcnYPIiVaUHPV4T-17" value="" style="rounded=0;whiteSpace=wrap;html=1;dashed=1;fillColor=#dae8fc;strokeColor=#6c8ebf;" vertex="1" parent="1">
          <mxGeometry x="400" y="260" width="650" height="450" as="geometry" />
        </mxCell>
        <mxCell id="Vgf2tIcnYPIiVaUHPV4T-11" value="" style="rounded=0;whiteSpace=wrap;html=1;dashed=1;fillColor=#fff2cc;strokeColor=#d6b656;" vertex="1" parent="1">
          <mxGeometry x="80" y="260" width="270" height="140" as="geometry" />
        </mxCell>
        <mxCell id="Vgf2tIcnYPIiVaUHPV4T-15" value="" style="edgeStyle=orthogonalEdgeStyle;rounded=0;orthogonalLoop=1;jettySize=auto;html=1;" edge="1" parent="1" source="Vgf2tIcnYPIiVaUHPV4T-8" target="Vgf2tIcnYPIiVaUHPV4T-13">
          <mxGeometry relative="1" as="geometry" />
        </mxCell>
        <mxCell id="Vgf2tIcnYPIiVaUHPV4T-8" value="" style="rounded=0;whiteSpace=wrap;html=1;dashed=1;fillColor=#ffe6cc;strokeColor=#d79b00;" vertex="1" parent="1">
          <mxGeometry x="-210" y="260" width="250" height="140" as="geometry" />
        </mxCell>
        <mxCell id="Vgf2tIcnYPIiVaUHPV4T-9" value="RouterActivity" style="text;html=1;align=center;verticalAlign=middle;whiteSpace=wrap;rounded=0;" vertex="1" parent="1">
          <mxGeometry x="-210" y="260" width="90" height="30" as="geometry" />
        </mxCell>
        <mxCell id="Vgf2tIcnYPIiVaUHPV4T-14" style="edgeStyle=orthogonalEdgeStyle;rounded=0;orthogonalLoop=1;jettySize=auto;html=1;exitX=1;exitY=0.5;exitDx=0;exitDy=0;entryX=0;entryY=0.5;entryDx=0;entryDy=0;" edge="1" parent="1" source="Vgf2tIcnYPIiVaUHPV4T-10" target="Vgf2tIcnYPIiVaUHPV4T-13">
          <mxGeometry relative="1" as="geometry" />
        </mxCell>
        <mxCell id="Vgf2tIcnYPIiVaUHPV4T-16" value="tryExecute" style="edgeLabel;html=1;align=center;verticalAlign=middle;resizable=0;points=[];" vertex="1" connectable="0" parent="Vgf2tIcnYPIiVaUHPV4T-14">
          <mxGeometry x="0.0533" relative="1" as="geometry">
            <mxPoint as="offset" />
          </mxGeometry>
        </mxCell>
        <mxCell id="Vgf2tIcnYPIiVaUHPV4T-10" value="各类隐私校验" style="rounded=1;whiteSpace=wrap;html=1;" vertex="1" parent="1">
          <mxGeometry x="-145" y="300" width="120" height="60" as="geometry" />
        </mxCell>
        <mxCell id="Vgf2tIcnYPIiVaUHPV4T-12" value="RouterBaseActivity" style="text;html=1;align=center;verticalAlign=middle;whiteSpace=wrap;rounded=0;" vertex="1" parent="1">
          <mxGeometry x="80" y="260" width="110" height="30" as="geometry" />
        </mxCell>
        <mxCell id="Vgf2tIcnYPIiVaUHPV4T-13" value="上报特定功能的DeepLink埋点&lt;div&gt;（如：预览）&lt;/div&gt;" style="rounded=1;whiteSpace=wrap;html=1;" vertex="1" parent="1">
          <mxGeometry x="125" y="300" width="180" height="60" as="geometry" />
        </mxCell>
        <mxCell id="Vgf2tIcnYPIiVaUHPV4T-18" value="Router" style="text;html=1;align=center;verticalAlign=middle;whiteSpace=wrap;rounded=0;" vertex="1" parent="1">
          <mxGeometry x="400" y="260" width="60" height="30" as="geometry" />
        </mxCell>
        <mxCell id="Vgf2tIcnYPIiVaUHPV4T-19" style="edgeStyle=orthogonalEdgeStyle;rounded=0;orthogonalLoop=1;jettySize=auto;html=1;exitX=1;exitY=0.5;exitDx=0;exitDy=0;entryX=0;entryY=0.5;entryDx=0;entryDy=0;" edge="1" parent="1" source="Vgf2tIcnYPIiVaUHPV4T-13" target="Vgf2tIcnYPIiVaUHPV4T-21">
          <mxGeometry relative="1" as="geometry" />
        </mxCell>
        <mxCell id="Vgf2tIcnYPIiVaUHPV4T-20" value="execute" style="edgeLabel;html=1;align=center;verticalAlign=middle;resizable=0;points=[];" vertex="1" connectable="0" parent="Vgf2tIcnYPIiVaUHPV4T-19">
          <mxGeometry x="-0.0316" y="-1" relative="1" as="geometry">
            <mxPoint as="offset" />
          </mxGeometry>
        </mxCell>
        <mxCell id="Vgf2tIcnYPIiVaUHPV4T-23" style="edgeStyle=orthogonalEdgeStyle;rounded=0;orthogonalLoop=1;jettySize=auto;html=1;exitX=0.5;exitY=1;exitDx=0;exitDy=0;entryX=0.5;entryY=0;entryDx=0;entryDy=0;" edge="1" parent="1" source="Vgf2tIcnYPIiVaUHPV4T-21" target="Vgf2tIcnYPIiVaUHPV4T-22">
          <mxGeometry relative="1" as="geometry" />
        </mxCell>
        <mxCell id="Vgf2tIcnYPIiVaUHPV4T-21" value="外部DL，但无url则默认跳首页" style="rounded=1;whiteSpace=wrap;html=1;" vertex="1" parent="1">
          <mxGeometry x="430" y="300" width="180" height="60" as="geometry" />
        </mxCell>
        <mxCell id="Vgf2tIcnYPIiVaUHPV4T-25" style="edgeStyle=orthogonalEdgeStyle;rounded=0;orthogonalLoop=1;jettySize=auto;html=1;exitX=0.5;exitY=1;exitDx=0;exitDy=0;entryX=0.5;entryY=0;entryDx=0;entryDy=0;" edge="1" parent="1" source="Vgf2tIcnYPIiVaUHPV4T-22" target="Vgf2tIcnYPIiVaUHPV4T-24">
          <mxGeometry relative="1" as="geometry" />
        </mxCell>
        <mxCell id="Vgf2tIcnYPIiVaUHPV4T-22" value="新的DL格式，则走新处理逻辑" style="rounded=1;whiteSpace=wrap;html=1;" vertex="1" parent="1">
          <mxGeometry x="430" y="390" width="180" height="60" as="geometry" />
        </mxCell>
        <mxCell id="Vgf2tIcnYPIiVaUHPV4T-27" style="edgeStyle=orthogonalEdgeStyle;rounded=0;orthogonalLoop=1;jettySize=auto;html=1;exitX=0.5;exitY=1;exitDx=0;exitDy=0;entryX=0.5;entryY=0;entryDx=0;entryDy=0;" edge="1" parent="1" source="Vgf2tIcnYPIiVaUHPV4T-24" target="Vgf2tIcnYPIiVaUHPV4T-26">
          <mxGeometry relative="1" as="geometry" />
        </mxCell>
        <mxCell id="Vgf2tIcnYPIiVaUHPV4T-24" value="上报DL请求埋点" style="rounded=0;whiteSpace=wrap;html=1;fillColor=#d5e8d4;strokeColor=#82b366;" vertex="1" parent="1">
          <mxGeometry x="430" y="480" width="180" height="40" as="geometry" />
        </mxCell>
        <mxCell id="Vgf2tIcnYPIiVaUHPV4T-29" style="edgeStyle=orthogonalEdgeStyle;rounded=0;orthogonalLoop=1;jettySize=auto;html=1;exitX=0.5;exitY=1;exitDx=0;exitDy=0;entryX=0.5;entryY=0;entryDx=0;entryDy=0;" edge="1" parent="1" source="Vgf2tIcnYPIiVaUHPV4T-26" target="Vgf2tIcnYPIiVaUHPV4T-28">
          <mxGeometry relative="1" as="geometry" />
        </mxCell>
        <mxCell id="Vgf2tIcnYPIiVaUHPV4T-26" value="DL的path为空，则默认跳首页" style="rounded=1;whiteSpace=wrap;html=1;" vertex="1" parent="1">
          <mxGeometry x="430" y="554.5" width="180" height="55.5" as="geometry" />
        </mxCell>
        <mxCell id="Vgf2tIcnYPIiVaUHPV4T-31" style="edgeStyle=orthogonalEdgeStyle;rounded=0;orthogonalLoop=1;jettySize=auto;html=1;exitX=1;exitY=0.5;exitDx=0;exitDy=0;entryX=0;entryY=0.5;entryDx=0;entryDy=0;" edge="1" parent="1" source="Vgf2tIcnYPIiVaUHPV4T-28" target="Vgf2tIcnYPIiVaUHPV4T-30">
          <mxGeometry relative="1" as="geometry" />
        </mxCell>
        <mxCell id="Vgf2tIcnYPIiVaUHPV4T-32" value="tryMatchExecutor" style="edgeLabel;html=1;align=center;verticalAlign=middle;resizable=0;points=[];" vertex="1" connectable="0" parent="Vgf2tIcnYPIiVaUHPV4T-31">
          <mxGeometry x="0.0683" y="3" relative="1" as="geometry">
            <mxPoint as="offset" />
          </mxGeometry>
        </mxCell>
        <mxCell id="Vgf2tIcnYPIiVaUHPV4T-28" value="上报DL点击埋点" style="rounded=0;whiteSpace=wrap;html=1;fillColor=#d5e8d4;strokeColor=#82b366;" vertex="1" parent="1">
          <mxGeometry x="430" y="640" width="180" height="40" as="geometry" />
        </mxCell>
        <mxCell id="Vgf2tIcnYPIiVaUHPV4T-34" style="edgeStyle=orthogonalEdgeStyle;rounded=0;orthogonalLoop=1;jettySize=auto;html=1;exitX=0.5;exitY=1;exitDx=0;exitDy=0;entryX=0.5;entryY=0;entryDx=0;entryDy=0;" edge="1" parent="1" source="Vgf2tIcnYPIiVaUHPV4T-30" target="Vgf2tIcnYPIiVaUHPV4T-33">
          <mxGeometry relative="1" as="geometry" />
        </mxCell>
        <mxCell id="Vgf2tIcnYPIiVaUHPV4T-39" value="Y" style="edgeLabel;html=1;align=center;verticalAlign=middle;resizable=0;points=[];" vertex="1" connectable="0" parent="Vgf2tIcnYPIiVaUHPV4T-34">
          <mxGeometry x="-0.1333" y="-1" relative="1" as="geometry">
            <mxPoint as="offset" />
          </mxGeometry>
        </mxCell>
        <mxCell id="Vgf2tIcnYPIiVaUHPV4T-37" style="edgeStyle=orthogonalEdgeStyle;rounded=0;orthogonalLoop=1;jettySize=auto;html=1;exitX=1;exitY=0.5;exitDx=0;exitDy=0;entryX=0;entryY=0.5;entryDx=0;entryDy=0;" edge="1" parent="1" source="Vgf2tIcnYPIiVaUHPV4T-30" target="Vgf2tIcnYPIiVaUHPV4T-36">
          <mxGeometry relative="1" as="geometry" />
        </mxCell>
        <mxCell id="Vgf2tIcnYPIiVaUHPV4T-38" value="N" style="edgeLabel;html=1;align=center;verticalAlign=middle;resizable=0;points=[];" vertex="1" connectable="0" parent="Vgf2tIcnYPIiVaUHPV4T-37">
          <mxGeometry x="0.1" y="2" relative="1" as="geometry">
            <mxPoint as="offset" />
          </mxGeometry>
        </mxCell>
        <mxCell id="Vgf2tIcnYPIiVaUHPV4T-30" value="查找匹配执行器" style="rounded=1;whiteSpace=wrap;html=1;fillColor=#fff2cc;strokeColor=#d6b656;" vertex="1" parent="1">
          <mxGeometry x="720" y="300" width="120" height="60" as="geometry" />
        </mxCell>
        <mxCell id="Vgf2tIcnYPIiVaUHPV4T-42" style="edgeStyle=orthogonalEdgeStyle;rounded=0;orthogonalLoop=1;jettySize=auto;html=1;exitX=1;exitY=0.5;exitDx=0;exitDy=0;entryX=0;entryY=0.5;entryDx=0;entryDy=0;" edge="1" parent="1" source="Vgf2tIcnYPIiVaUHPV4T-33" target="Vgf2tIcnYPIiVaUHPV4T-40">
          <mxGeometry relative="1" as="geometry" />
        </mxCell>
        <mxCell id="Vgf2tIcnYPIiVaUHPV4T-43" value="Fail" style="edgeLabel;html=1;align=center;verticalAlign=middle;resizable=0;points=[];" vertex="1" connectable="0" parent="Vgf2tIcnYPIiVaUHPV4T-42">
          <mxGeometry x="-0.5667" relative="1" as="geometry">
            <mxPoint x="17" as="offset" />
          </mxGeometry>
        </mxCell>
        <mxCell id="Vgf2tIcnYPIiVaUHPV4T-45" style="edgeStyle=orthogonalEdgeStyle;rounded=0;orthogonalLoop=1;jettySize=auto;html=1;exitX=0.5;exitY=1;exitDx=0;exitDy=0;entryX=0.5;entryY=0;entryDx=0;entryDy=0;" edge="1" parent="1" source="Vgf2tIcnYPIiVaUHPV4T-33" target="Vgf2tIcnYPIiVaUHPV4T-44">
          <mxGeometry relative="1" as="geometry" />
        </mxCell>
        <mxCell id="Vgf2tIcnYPIiVaUHPV4T-46" value="Success" style="edgeLabel;html=1;align=center;verticalAlign=middle;resizable=0;points=[];" vertex="1" connectable="0" parent="Vgf2tIcnYPIiVaUHPV4T-45">
          <mxGeometry x="-0.0667" y="2" relative="1" as="geometry">
            <mxPoint as="offset" />
          </mxGeometry>
        </mxCell>
        <mxCell id="Vgf2tIcnYPIiVaUHPV4T-33" value="执行doExecute接口" style="rounded=1;whiteSpace=wrap;html=1;" vertex="1" parent="1">
          <mxGeometry x="720" y="390" width="120" height="60" as="geometry" />
        </mxCell>
        <mxCell id="Vgf2tIcnYPIiVaUHPV4T-36" value="上报查找失败信息" style="ellipse;whiteSpace=wrap;html=1;fillColor=#f8cecc;strokeColor=#b85450;" vertex="1" parent="1">
          <mxGeometry x="900" y="300" width="120" height="60" as="geometry" />
        </mxCell>
        <mxCell id="Vgf2tIcnYPIiVaUHPV4T-40" value="端外执行失败则默认跳转首页" style="rounded=1;whiteSpace=wrap;html=1;" vertex="1" parent="1">
          <mxGeometry x="900" y="390" width="120" height="60" as="geometry" />
        </mxCell>
        <mxCell id="Vgf2tIcnYPIiVaUHPV4T-44" value="END" style="rounded=1;whiteSpace=wrap;html=1;fillColor=#dae8fc;gradientColor=#7ea6e0;strokeColor=#6c8ebf;" vertex="1" parent="1">
          <mxGeometry x="720" y="480" width="120" height="60" as="geometry" />
        </mxCell>
      </root>
    </mxGraphModel>
  </diagram>
</mxfile>
